<svg xmlns="http://www.w3.org/2000/svg" width="1600" height="1000" viewBox="0 0 1600 1000">
  <title>Meridian salvaged steel monitor bezel</title>
  <desc>Original vector artwork: layered oxidized armor, recessed fasteners, chipped paint, scored steel, vents, service markings and amber indicators. Meridian palette with Minmatar-inspired industrial construction. Designed for a 120-unit nine-slice border.</desc>
  <defs>
    <linearGradient id="steel" x2=".2" y2="1"><stop stop-color="#79614b"/><stop offset=".12" stop-color="#4c3527"/><stop offset=".48" stop-color="#292520"/><stop offset=".8" stop-color="#483022"/><stop offset="1" stop-color="#171310"/></linearGradient>
    <linearGradient id="oxide" x2=".4" y2="1"><stop stop-color="#a76238"/><stop offset=".16" stop-color="#70412b"/><stop offset=".55" stop-color="#583225"/><stop offset="1" stop-color="#30231b"/></linearGradient>
    <linearGradient id="red" x2=".3" y2="1"><stop stop-color="#94503a"/><stop offset=".5" stop-color="#663629"/><stop offset="1" stop-color="#38251e"/></linearGradient>
    <linearGradient id="bolt" x2=".8" y2="1"><stop stop-color="#c0ac88"/><stop offset=".28" stop-color="#8f887c"/><stop offset=".5" stop-color="#50483c"/><stop offset="1" stop-color="#211d19"/></linearGradient>
    <pattern id="vents" width="9" height="18" patternUnits="userSpaceOnUse"><path d="M2 2h4v12H2z" fill="#0e0c0b"/><path d="M6 2v13H2" fill="none" stroke="#8f6745" stroke-opacity=".42"/></pattern>
    <pattern id="hazard" width="26" height="26" patternUnits="userSpaceOnUse" patternTransform="skewX(-32)"><path d="M0 0h12v26H0z" fill="#b89043"/><path d="M12 0h14v26H12z" fill="#211d19"/></pattern>
    <filter id="weather" x="0" y="0" width="100%" height="100%" color-interpolation-filters="sRGB">
      <feTurbulence type="fractalNoise" baseFrequency=".038 .17" numOctaves="3" seed="13" result="noise"/>
      <feColorMatrix in="noise" type="matrix" values="0 0 0 0 .21  0 0 0 0 .105  0 0 0 0 .048  1.8 0 0 0 -.66" result="pitting"/>
      <feBlend in="SourceGraphic" in2="pitting" mode="multiply"/>
    </filter>
    <filter id="grain" x="0" y="0" width="100%" height="100%" color-interpolation-filters="sRGB">
      <feTurbulence type="fractalNoise" baseFrequency=".6" numOctaves="2" seed="71"/>
      <feColorMatrix type="saturate" values="0"/>
      <feComponentTransfer><feFuncA type="linear" slope=".19"/></feComponentTransfer>
      <feBlend in="SourceGraphic" mode="soft-light"/>
    </filter>
    <clipPath id="rim"><path fill-rule="evenodd" d="M0 0h1600v1000H0z M119 38h1362a81 63 0 0 1 81 63v798a81 63 0 0 1-81 63H119a81 63 0 0 1-81-63V101a81 63 0 0 1 81-63z"/></clipPath>
    <g id="fastener"><circle r="10" fill="#1a100b"/><circle r="8.6" fill="#0e0c0b" stroke="#855134" stroke-width="1.4"/><path d="M-3.7-6.4h7.4L7.4 0 3.7 6.4h-7.4L-7.4 0z" fill="url(#bolt)" stroke="#1a1714"/><path d="M-3.5 0h7" stroke="#0e0c0b" stroke-width="2.1"/><path d="M-3.5 1.3h6.8" stroke="#b5a081" stroke-opacity=".45" stroke-width=".7"/><path d="M-7-4a8 8 0 0 1 11-3" fill="none" stroke="#e0863f" stroke-opacity=".45"/></g>
    <g id="corner"><path d="M5 5h107v25l-31 6-43 39-8 32H5z" fill="url(#oxide)" stroke="#100d0b" stroke-width="2"/><path d="M8 9h101M9 10v91M42 63l28-24 32-8" fill="none" stroke="#c5905a" stroke-opacity=".55"/><path d="M12 33l40 3-18 20-1 38H12z" fill="#38291f" stroke="#1a1714"/><path d="M7 106h21l9-31 44-39 29-5" fill="none" stroke="#0e0c0b" stroke-width="3"/><path d="M35 74l6-13 20-18" fill="none" stroke="#a89f90" stroke-width="1.3"/><use href="#fastener" x="23" y="21"/><use href="#fastener" x="89" y="20" transform="rotate(20 89 20)"/><use href="#fastener" x="20" y="86" transform="rotate(-27 20 86)"/><path d="M47 14h17m-20 4h24m-17 4h10" stroke="#d8b58b" stroke-opacity=".35" stroke-width="1"/><path d="M15 48v20m4-14v18m4-25v14" stroke="#bc7a47" stroke-opacity=".6"/></g>
  </defs>
  <!-- The broad faces are independent plates, with dark structure visible at joins. -->
  <g clip-path="url(#rim)">
    <path d="M0 0h1600v1000H0z" fill="#211d19"/>
    <g filter="url(#weather)">
      <path d="M3 3h1594v994H3z" fill="url(#steel)" stroke="#0e0c0b" stroke-width="6"/>
      <path d="M117 6h262l13 11-8 16H118z M406 6h333l-11 27H400z M760 6h347l9 27H744z M1128 6h354v27h-359z" fill="url(#oxide)" stroke="#17100d" stroke-width="2"/>
      <path d="M119 969h265l10 24H119z M411 969h313l12 24H403z M759 969h341l13 24H747z M1130 969h352v24h-359z" fill="url(#red)" stroke="#17100d" stroke-width="2"/>
      <path d="M6 120h27v202l-8 10H6z M6 351l27-9v303L6 661z M6 686l27-16v210H6z M1567 120h27v210l-27-8z M1567 345l27 11v302l-27-10z M1567 673l27 13v194h-27z" fill="url(#oxide)" stroke="#17100d" stroke-width="2"/>
      <use href="#corner"/><use href="#corner" transform="translate(1600 0) scale(-1 1)"/><use href="#corner" transform="translate(0 1000) scale(1 -1)"/><use href="#corner" transform="translate(1600 1000) scale(-1 -1)"/>
    </g>
    <!-- Fine machined inner lip and the black rubber glass gasket. -->
    <rect x="37" y="37" width="1526" height="926" rx="81" ry="63" fill="none" stroke="#0e0c0b" stroke-width="7"/>
    <rect x="33" y="33" width="1534" height="934" rx="84" ry="66" fill="none" stroke="#907354" stroke-opacity=".46" stroke-width="1.2"/>
    <path d="M120 3h1360M3 120v760" fill="none" stroke="#a89f90" stroke-opacity=".5"/>
    <path d="M120 997h1360M1597 120v760" fill="none" stroke="#080706" stroke-width="3"/>
    <path d="M122 8h250m40 0h312m42 0h332m35 0h345M8 125v186m0 45v286m0 48v184" fill="none" stroke="#d39a65" stroke-opacity=".46"/>
    <!-- Open service grilles and short lengths of faded warning paint. -->
    <rect x="165" y="12" width="148" height="15" rx="2" fill="#171310" stroke="#866143"/><rect x="169" y="13" width="140" height="13" fill="url(#vents)"/>
    <rect x="1242" y="972" width="168" height="16" rx="2" fill="#171310" stroke="#795238"/><rect x="1246" y="973" width="160" height="14" fill="url(#vents)"/>
    <path d="M118 969h81v8h-81z M1387 24h95v7h-95z" fill="url(#hazard)" opacity=".67"/>
    <path d="M13 425h13v143H13z M1574 420h13v142h-13z" fill="url(#vents)" opacity=".85"/>
    <g fill="#100d0b" stroke="#67442c"><path d="M383 10h17v19h-17z M729 10h18v19h-18z M1108 10h16v19h-16z M390 973h15v17h-15z M736 973h14v17h-14z M1112 973h12v17h-12z"/></g>
    <g stroke="#886449" stroke-width="2"><path d="M387 12l9 15m337-15 9 15m370-15 8 15M393 976l8 11m338-11 8 11m368-11 5 11"/></g>

    <path d="M3.3 102.7l0.7 -1.4 1.1 1.1 -0.4 1.9 -1.3 0.8z M913.9 992.5l1.8 -1.4 2.7 1.1 -0.9 1.9 -3.1 0.8z M8.2 325.2l3.2 -1.5 4.8 1.2 -1.6 2.1 -5.6 0.9z M9.2 208.9l1.1 -0.9 1.7 0.7 -0.6 1.2 -1.9 0.5z M455.4 27.3l0.7 -1.2 1.0 1.0 -0.3 1.7 -1.2 0.7z M19.6 713.6l2.3 -0.5 3.4 0.4 -1.1 0.7 -4.0 0.3z M5.5 346.8l0.8 -0.4 1.2 0.3 -0.4 0.6 -1.4 0.3z M31.5 172.2l0.4 -0.7 0.7 0.6 -0.2 1.0 -0.8 0.4z M974.1 6.0l1.6 -1.1 2.4 0.9 -0.8 1.6 -2.8 0.7z M1588.6 640.5l1.0 -0.2 1.5 0.2 -0.5 0.3 -1.8 0.1z M1586.2 925.9l2.5 -1.3 3.7 1.0 -1.2 1.8 -4.3 0.8z M1590.8 459.1l3.7 -1.7 5.5 1.3 -1.8 2.4 -6.5 1.0z M287.2 22.0l3.2 -0.8 4.7 0.6 -1.6 1.1 -5.5 0.5z M1581.9 985.1l2.8 -0.5 4.2 0.4 -1.4 0.7 -4.9 0.3z M1569.1 523.7l1.0 -1.0 1.5 0.8 -0.5 1.4 -1.8 0.6z M1594.7 761.9l1.3 -1.3 1.9 1.1 -0.6 1.9 -2.2 0.8z M1445.8 968.9l2.9 -0.5 4.4 0.4 -1.5 0.8 -5.1 0.3z M24.8 899.9l1.5 -0.8 2.2 0.6 -0.7 1.1 -2.6 0.5z M879.7 5.7l3.5 -0.6 5.2 0.5 -1.7 0.9 -6.1 0.4z M1574.0 26.1l1.4 -1.7 2.1 1.3 -0.7 2.4 -2.4 1.0z M1363.8 972.5l1.8 -0.7 2.7 0.6 -0.9 1.0 -3.1 0.4z M853.3 29.6l1.9 -1.6 2.8 1.2 -0.9 2.2 -3.3 0.9z M1370.2 12.1l1.8 -0.8 2.8 0.7 -0.9 1.2 -3.2 0.5z M1266.7 30.4l1.9 -0.2 2.8 0.2 -0.9 0.3 -3.3 0.1z M1569.9 167.1l3.2 -0.9 4.7 0.7 -1.6 1.3 -5.5 0.5z M984.3 969.5l3.1 -0.8 4.7 0.6 -1.6 1.1 -5.5 0.5z M1327.6 3.0l3.8 -0.6 5.6 0.5 -1.9 0.9 -6.6 0.4z M1566.2 744.7l2.3 -0.7 3.5 0.6 -1.2 1.0 -4.0 0.4z M391.3 989.6l2.1 -0.8 3.1 0.6 -1.0 1.1 -3.6 0.5z M1368.9 986.4l3.6 -1.6 5.4 1.3 -1.8 2.3 -6.3 1.0z M33.7 275.1l0.6 -0.7 0.9 0.6 -0.3 1.0 -1.1 0.4z M11.4 745.5l2.6 -0.6 3.9 0.5 -1.3 0.9 -4.6 0.4z M442.3 24.2l2.8 -1.0 4.3 0.8 -1.4 1.5 -5.0 0.6z M1579.6 684.7l2.8 -0.4 4.2 0.3 -1.4 0.5 -4.9 0.2z M468.9 32.3l2.5 -1.0 3.7 0.8 -1.2 1.4 -4.3 0.6z M1588.6 12.1l3.4 -0.9 5.1 0.7 -1.7 1.3 -5.9 0.6z M765.0 991.1l2.2 -1.2 3.3 1.0 -1.1 1.7 -3.8 0.7z M28.6 941.7l2.2 -0.3 3.3 0.2 -1.1 0.4 -3.8 0.2z M11.6 484.3l0.7 -1.1 1.1 0.9 -0.4 1.6 -1.2 0.7z M6.3 686.4l2.6 -1.6 3.9 1.3 -1.3 2.2 -4.5 1.0z M124.1 974.4l3.1 -1.0 4.6 0.8 -1.5 1.4 -5.3 0.6z M1579.2 757.2l3.0 -1.0 4.5 0.8 -1.5 1.4 -5.2 0.6z M1483.0 994.9l1.3 -1.5 1.9 1.2 -0.6 2.1 -2.2 0.9z M1579.5 423.1l2.2 -1.1 3.3 0.9 -1.1 1.5 -3.8 0.7z M635.0 978.5l1.8 -1.4 2.7 1.1 -0.9 2.0 -3.1 0.9z M30.0 865.0l0.7 -1.1 1.0 0.9 -0.3 1.6 -1.2 0.7z M573.0 975.5l1.3 -1.2 2.0 0.9 -0.7 1.6 -2.4 0.7z M1055.1 990.2l3.5 -1.2 5.3 0.9 -1.8 1.6 -6.2 0.7z M964.5 26.3l1.0 -0.8 1.5 0.6 -0.5 1.1 -1.7 0.5z M1580.6 103.0l2.5 -1.0 3.7 0.8 -1.2 1.4 -4.3 0.6z M17.8 301.7l3.6 -0.8 5.4 0.7 -1.8 1.2 -6.3 0.5z M1570.8 966.7l2.4 -1.7 3.7 1.4 -1.2 2.4 -4.3 1.0z M25.1 377.6l3.8 -1.5 5.6 1.2 -1.9 2.1 -6.6 0.9z M607.9 29.3l3.4 -0.8 5.1 0.6 -1.7 1.1 -5.9 0.5z M24.0 624.1l0.8 -1.3 1.2 1.0 -0.4 1.8 -1.4 0.8z M571.0 994.9l1.1 -1.1 1.6 0.9 -0.5 1.5 -1.9 0.6z M612.4 8.1l3.4 -0.7 5.1 0.6 -1.7 1.0 -6.0 0.4z M25.4 44.5l3.5 -0.6 5.3 0.5 -1.8 0.8 -6.2 0.4z M1592.9 459.0l1.3 -0.7 2.0 0.6 -0.7 1.0 -2.4 0.4z M1587.9 786.7l2.8 -1.0 4.3 0.8 -1.4 1.5 -5.0 0.6z M18.1 66.7l1.9 -1.4 2.9 1.1 -1.0 2.0 -3.4 0.9z M1080.1 977.2l0.6 -0.6 0.9 0.5 -0.3 0.8 -1.0 0.4z M1223.7 19.7l1.2 -1.6 1.8 1.3 -0.6 2.3 -2.1 1.0z M4.5 13.8l1.6 -1.0 2.3 0.8 -0.8 1.3 -2.7 0.6z M1569.2 533.1l1.1 -1.2 1.6 1.0 -0.5 1.7 -1.9 0.7z M223.6 979.5l1.2 -0.4 1.9 0.3 -0.6 0.6 -2.2 0.2z M1574.4 939.9l3.7 -1.0 5.5 0.8 -1.8 1.4 -6.4 0.6z M12.0 503.2l1.3 -0.4 2.0 0.3 -0.7 0.5 -2.3 0.2z M1023.6 974.2l1.2 -1.0 1.8 0.8 -0.6 1.4 -2.1 0.6z M1567.7 29.6l3.3 -1.6 4.9 1.3 -1.6 2.2 -5.7 0.9z M1569.2 908.3l1.4 -1.1 2.1 0.9 -0.7 1.6 -2.5 0.7z M7.7 655.7l1.1 -0.2 1.7 0.2 -0.6 0.3 -2.0 0.1z M32.4 806.0l0.4 -0.6 0.6 0.5 -0.2 0.9 -0.7 0.4z M1570.9 792.4l3.8 -0.9 5.7 0.7 -1.9 1.2 -6.6 0.5z M1574.4 460.7l2.5 -0.2 3.7 0.2 -1.2 0.3 -4.3 0.1z M1580.0 97.8l0.5 -1.7 0.8 1.3 -0.3 2.3 -0.9 1.0z M972.2 981.8l1.9 -1.1 2.9 0.9 -1.0 1.6 -3.4 0.7z M1572.0 201.9l1.2 -1.5 1.8 1.2 -0.6 2.1 -2.1 0.9z M1572.5 55.1l2.1 -1.4 3.1 1.1 -1.0 1.9 -3.6 0.8z M947.5 991.7l1.4 -1.7 2.1 1.3 -0.7 2.3 -2.4 1.0z M131.1 25.4l2.2 -0.8 3.4 0.6 -1.1 1.1 -3.9 0.5z M1122.9 11.7l2.3 -0.9 3.4 0.7 -1.1 1.2 -4.0 0.5z M76.7 4.0l1.4 -0.7 2.1 0.6 -0.7 1.0 -2.4 0.4z M1586.3 360.7l3.4 -1.2 5.0 0.9 -1.7 1.6 -5.9 0.7z M1584.5 681.8l2.8 -0.5 4.2 0.4 -1.4 0.7 -5.0 0.3z M1202.7 35.3l3.1 -0.5 4.7 0.4 -1.6 0.7 -5.5 0.3z M15.7 681.5l2.6 -0.4 3.9 0.4 -1.3 0.6 -4.5 0.3z M1001.1 990.9l1.3 -1.3 1.9 1.0 -0.6 1.8 -2.3 0.8z M1585.9 607.3l1.5 -1.4 2.2 1.1 -0.7 1.9 -2.6 0.8z M235.4 34.9l0.7 -0.4 1.0 0.3 -0.3 0.6 -1.2 0.3z M3.8 840.5l3.6 -0.9 5.4 0.7 -1.8 1.3 -6.3 0.5z M1390.4 993.0l2.9 -0.6 4.3 0.5 -1.4 0.9 -5.0 0.4z M1587.1 831.7l3.7 -0.6 5.5 0.5 -1.8 0.9 -6.4 0.4z M27.5 320.4l1.2 -1.2 1.8 0.9 -0.6 1.6 -2.1 0.7z M434.7 968.5l3.3 -1.0 4.9 0.8 -1.6 1.4 -5.7 0.6z M14.4 563.9l0.8 -1.0 1.2 0.8 -0.4 1.4 -1.4 0.6z M301.9 968.9l2.0 -1.7 3.0 1.3 -1.0 2.4 -3.5 1.0z M674.9 970.2l2.2 -0.9 3.4 0.7 -1.1 1.2 -3.9 0.5z M31.0 976.1l1.8 -0.2 2.6 0.2 -0.9 0.3 -3.1 0.1z M559.4 26.7l1.7 -1.0 2.6 0.8 -0.9 1.4 -3.0 0.6z M1570.7 530.4l1.3 -0.3 1.9 0.3 -0.6 0.5 -2.2 0.2z M1580.4 705.2l2.4 -1.1 3.5 0.9 -1.2 1.5 -4.1 0.7z M22.1 980.4l2.5 -0.5 3.7 0.4 -1.2 0.6 -4.4 0.3z M189.4 34.2l2.2 -0.5 3.3 0.4 -1.1 0.7 -3.8 0.3z M12.8 350.5l2.9 -0.5 4.4 0.4 -1.5 0.7 -5.2 0.3z" fill="#af6333" opacity="0.44"/>
    <path d="M624.4 980.7l2.0 -0.2 3.0 0.2 -1.0 0.3 -3.5 0.1z M13.3 927.4l1.9 -1.2 2.8 0.9 -0.9 1.6 -3.3 0.7z M501.8 14.0l0.4 -0.8 0.7 0.6 -0.2 1.1 -0.8 0.5z M926.6 975.7l3.7 -0.4 5.6 0.3 -1.9 0.6 -6.5 0.3z M1574.5 492.6l2.1 -0.6 3.2 0.5 -1.1 0.9 -3.7 0.4z M1269.4 971.6l3.0 -1.3 4.5 1.1 -1.5 1.8 -5.3 0.8z M1243.2 978.2l1.5 -1.1 2.3 0.9 -0.8 1.5 -2.7 0.6z M28.8 187.1l2.8 -0.2 4.1 0.2 -1.4 0.3 -4.8 0.1z M926.0 20.8l0.7 -1.3 1.1 1.0 -0.4 1.8 -1.3 0.8z M1578.0 922.9l3.1 -1.5 4.6 1.2 -1.5 2.0 -5.4 0.9z M330.3 19.5l1.4 -1.3 2.1 1.0 -0.7 1.8 -2.4 0.8z M741.2 22.6l1.5 -0.7 2.2 0.6 -0.7 1.0 -2.6 0.4z M1584.4 573.4l0.5 -1.3 0.7 1.1 -0.2 1.9 -0.8 0.8z M3.2 96.8l2.3 -1.0 3.5 0.8 -1.2 1.5 -4.0 0.6z M24.2 169.6l3.1 -0.4 4.7 0.3 -1.6 0.5 -5.5 0.2z M10.6 309.0l0.4 -0.5 0.6 0.4 -0.2 0.6 -0.8 0.3z M333.9 968.1l3.2 -1.0 4.8 0.8 -1.6 1.5 -5.6 0.6z M15.0 71.1l0.6 -0.2 0.9 0.2 -0.3 0.3 -1.0 0.1z M1436.5 979.4l2.8 -1.0 4.2 0.8 -1.4 1.4 -4.9 0.6z M603.7 987.5l3.6 -0.9 5.4 0.7 -1.8 1.2 -6.3 0.5z M812.2 5.8l3.0 -0.7 4.4 0.6 -1.5 1.0 -5.2 0.4z M1221.6 995.7l3.0 -0.2 4.5 0.2 -1.5 0.3 -5.2 0.1z M1576.4 22.5l2.4 -1.1 3.7 0.9 -1.2 1.5 -4.3 0.6z M346.2 31.4l3.8 -1.2 5.7 1.0 -1.9 1.7 -6.7 0.7z M867.8 984.2l2.1 -0.3 3.2 0.2 -1.1 0.4 -3.7 0.2z M31.9 316.0l1.6 -1.7 2.4 1.3 -0.8 2.3 -2.8 1.0z M1068.5 26.2l1.3 -1.3 1.9 1.0 -0.6 1.8 -2.3 0.8z M1586.6 544.0l2.1 -1.5 3.1 1.2 -1.0 2.1 -3.6 0.9z M539.2 8.9l2.9 -1.2 4.3 1.0 -1.4 1.7 -5.0 0.7z M23.1 970.2l3.6 -0.8 5.4 0.6 -1.8 1.1 -6.3 0.5z M776.6 25.6l2.6 -1.5 3.8 1.2 -1.3 2.1 -4.5 0.9z M5.0 300.0l2.3 -0.7 3.5 0.6 -1.2 1.0 -4.1 0.4z M1582.2 988.1l3.8 -0.9 5.7 0.8 -1.9 1.3 -6.6 0.6z M11.2 204.2l3.5 -1.0 5.2 0.8 -1.7 1.5 -6.1 0.6z M9.2 981.0l2.8 -0.4 4.1 0.3 -1.4 0.6 -4.8 0.3z M30.9 166.4l1.5 -1.5 2.3 1.2 -0.8 2.1 -2.7 0.9z M1384.5 992.2l2.5 -0.9 3.7 0.7 -1.2 1.2 -4.3 0.5z M151.3 987.9l2.3 -0.3 3.4 0.3 -1.1 0.5 -4.0 0.2z M105.0 26.6l3.2 -1.2 4.9 0.9 -1.6 1.6 -5.7 0.7z M1570.8 602.2l0.9 -0.8 1.4 0.6 -0.5 1.1 -1.6 0.5z M1337.2 35.2l3.3 -0.9 5.0 0.7 -1.7 1.2 -5.9 0.5z M1125.3 980.0l3.3 -1.3 4.9 1.0 -1.6 1.8 -5.7 0.8z M354.7 25.9l1.8 -1.3 2.6 1.0 -0.9 1.8 -3.1 0.8z M1573.4 25.6l1.9 -1.4 2.8 1.1 -0.9 2.0 -3.2 0.8z M1007.2 994.2l1.1 -0.6 1.7 0.5 -0.6 0.9 -2.0 0.4z M1259.8 984.0l2.4 -1.6 3.6 1.3 -1.2 2.2 -4.1 1.0z M1589.2 0.7l1.6 -0.9 2.4 0.7 -0.8 1.2 -2.8 0.5z M31.3 747.3l0.4 -1.3 0.7 1.1 -0.2 1.9 -0.8 0.8z M16.7 33.9l2.1 -0.2 3.2 0.2 -1.1 0.3 -3.7 0.1z M26.4 404.9l1.2 -1.4 1.8 1.1 -0.6 2.0 -2.1 0.9z M1392.0 12.8l1.9 -1.0 2.8 0.8 -0.9 1.4 -3.3 0.6z M24.5 316.2l3.0 -0.3 4.5 0.3 -1.5 0.4 -5.3 0.2z M1584.8 872.2l0.9 -1.4 1.4 1.1 -0.5 1.9 -1.6 0.8z M1579.3 789.5l2.1 -1.7 3.2 1.4 -1.1 2.4 -3.7 1.0z M1567.9 781.9l1.2 -0.8 1.8 0.6 -0.6 1.1 -2.1 0.5z M1449.4 982.2l3.3 -0.7 5.0 0.5 -1.7 1.0 -5.8 0.4z M316.5 22.4l3.0 -1.1 4.5 0.9 -1.5 1.5 -5.2 0.6z M609.6 6.6l3.6 -0.8 5.3 0.6 -1.8 1.1 -6.2 0.5z M35.5 529.8l1.1 -0.5 1.7 0.4 -0.6 0.6 -2.0 0.3z M231.6 26.3l2.8 -1.7 4.2 1.3 -1.4 2.4 -4.9 1.0z M1575.7 908.8l0.4 -1.0 0.6 0.8 -0.2 1.4 -0.7 0.6z M1570.7 904.8l0.9 -1.2 1.3 1.0 -0.4 1.7 -1.5 0.7z M46.5 11.9l0.8 -0.7 1.2 0.5 -0.4 1.0 -1.4 0.4z M746.9 27.5l1.6 -1.1 2.4 0.9 -0.8 1.5 -2.9 0.7z M1579.6 29.7l1.1 -0.4 1.7 0.3 -0.6 0.6 -2.0 0.3z M34.5 459.2l1.4 -0.3 2.2 0.2 -0.7 0.4 -2.5 0.2z M215.1 18.7l3.5 -1.4 5.2 1.1 -1.7 2.0 -6.1 0.9z M1121.7 977.2l1.8 -0.7 2.8 0.5 -0.9 0.9 -3.2 0.4z M1594.7 125.2l2.4 -0.5 3.6 0.4 -1.2 0.7 -4.2 0.3z M27.9 974.6l3.4 -0.2 5.1 0.2 -1.7 0.3 -6.0 0.1z M1570.1 809.4l2.1 -1.4 3.2 1.1 -1.1 1.9 -3.7 0.8z M1099.7 19.6l1.0 -1.6 1.5 1.3 -0.5 2.3 -1.8 1.0z M1033.3 19.7l3.3 -0.4 5.0 0.3 -1.7 0.6 -5.8 0.3z M1574.8 970.2l2.8 -1.2 4.2 0.9 -1.4 1.6 -4.9 0.7z M433.8 11.8l3.2 -1.3 4.8 1.1 -1.6 1.8 -5.6 0.8z M11.9 348.8l2.0 -1.2 3.1 1.0 -1.0 1.7 -3.6 0.7z M8.7 581.1l3.2 -1.4 4.8 1.1 -1.6 2.0 -5.6 0.9z M16.7 994.3l1.6 -0.9 2.4 0.7 -0.8 1.3 -2.8 0.5z M1587.8 601.0l0.5 -0.5 0.7 0.4 -0.2 0.7 -0.9 0.3z M30.5 112.7l2.1 -1.1 3.1 0.9 -1.0 1.6 -3.6 0.7z M1585.5 535.8l3.0 -0.2 4.5 0.2 -1.5 0.3 -5.3 0.1z M786.5 17.0l1.0 -0.4 1.6 0.3 -0.5 0.5 -1.8 0.2z M16.7 842.0l2.0 -1.1 3.0 0.9 -1.0 1.6 -3.5 0.7z M1579.5 170.9l1.1 -1.6 1.7 1.3 -0.6 2.3 -2.0 1.0z M34.8 533.9l2.2 -1.3 3.3 1.0 -1.1 1.8 -3.9 0.8z M639.9 984.5l0.7 -1.4 1.0 1.2 -0.3 2.0 -1.1 0.9z M1576.1 999.8l2.5 -1.7 3.7 1.3 -1.2 2.3 -4.3 1.0z M1579.7 5.4l3.3 -1.3 4.9 1.0 -1.6 1.8 -5.8 0.8z M860.4 987.5l1.7 -0.4 2.5 0.3 -0.8 0.5 -3.0 0.2z M829.1 13.9l3.7 -0.5 5.5 0.4 -1.8 0.8 -6.5 0.3z M227.5 974.3l3.0 -0.3 4.5 0.2 -1.5 0.4 -5.3 0.2z M26.7 864.5l2.2 -0.3 3.3 0.2 -1.1 0.4 -3.8 0.2z M1457.7 987.4l0.8 -0.6 1.2 0.5 -0.4 0.8 -1.4 0.3z M1569.9 870.8l1.2 -1.0 1.8 0.8 -0.6 1.5 -2.1 0.6z M1380.4 15.0l0.7 -1.4 1.1 1.1 -0.4 2.0 -1.2 0.9z M492.8 980.2l0.8 -1.3 1.2 1.1 -0.4 1.9 -1.4 0.8z M4.8 873.2l0.7 -0.6 1.0 0.5 -0.3 0.8 -1.2 0.3z M1487.2 9.2l1.7 -1.4 2.5 1.1 -0.8 2.0 -2.9 0.8z M1391.6 24.9l1.3 -0.2 1.9 0.2 -0.6 0.3 -2.3 0.1z M342.5 10.2l1.8 -0.3 2.7 0.2 -0.9 0.4 -3.2 0.2z M1227.7 24.9l3.4 -1.2 5.0 1.0 -1.7 1.7 -5.9 0.7z M559.4 4.0l1.0 -0.9 1.5 0.7 -0.5 1.3 -1.8 0.6z M1581.0 476.9l0.7 -0.2 1.0 0.2 -0.3 0.3 -1.2 0.1z M31.1 669.3l2.4 -0.8 3.6 0.7 -1.2 1.2 -4.3 0.5z M1016.0 34.6l3.1 -1.7 4.7 1.3 -1.6 2.3 -5.5 1.0z" fill="#c17d42" opacity="0.44"/>
    <path d="M1585.4 577.8l1.8 -0.6 2.6 0.5 -0.9 0.9 -3.1 0.4z M1595.5 556.2l1.5 -1.0 2.3 0.8 -0.8 1.4 -2.7 0.6z M161.1 15.7l3.3 -1.3 5.0 1.0 -1.7 1.8 -5.8 0.8z M506.1 970.1l0.4 -0.2 0.6 0.2 -0.2 0.3 -0.7 0.1z M1532.4 8.5l2.5 -1.1 3.7 0.9 -1.2 1.6 -4.3 0.7z M834.2 981.5l1.7 -1.4 2.5 1.1 -0.8 1.9 -3.0 0.8z M1538.9 975.0l2.8 -1.2 4.2 1.0 -1.4 1.7 -4.9 0.7z M292.5 973.0l1.0 -0.4 1.5 0.3 -0.5 0.6 -1.8 0.3z M1263.7 967.2l3.7 -1.1 5.5 0.9 -1.8 1.6 -6.5 0.7z M1588.4 989.8l0.3 -0.6 0.5 0.5 -0.2 0.8 -0.6 0.3z M1580.3 779.0l2.0 -1.7 3.0 1.4 -1.0 2.4 -3.5 1.0z M913.5 982.7l0.6 -0.5 1.0 0.4 -0.3 0.6 -1.1 0.3z M1584.6 190.0l0.4 -1.0 0.6 0.8 -0.2 1.4 -0.7 0.6z M30.8 599.7l0.6 -1.3 0.9 1.1 -0.3 1.9 -1.1 0.8z M9.8 589.1l1.6 -0.2 2.3 0.2 -0.8 0.3 -2.7 0.1z M263.6 20.0l0.9 -0.6 1.3 0.4 -0.4 0.8 -1.6 0.3z M22.3 784.3l0.7 -0.7 1.1 0.6 -0.4 1.0 -1.3 0.4z M1567.6 41.3l2.3 -0.5 3.4 0.4 -1.1 0.7 -3.9 0.3z M1372.6 975.4l2.4 -0.7 3.5 0.6 -1.2 1.0 -4.1 0.4z M437.4 982.7l2.0 -1.2 2.9 1.0 -1.0 1.7 -3.4 0.7z M725.2 987.4l0.9 -1.5 1.3 1.2 -0.4 2.1 -1.5 0.9z M684.8 32.5l0.4 -0.8 0.6 0.7 -0.2 1.2 -0.7 0.5z M1592.9 984.0l3.9 -0.8 5.8 0.6 -1.9 1.1 -6.8 0.5z M32.7 980.5l2.2 -0.4 3.2 0.3 -1.1 0.5 -3.8 0.2z M516.2 10.2l3.8 -0.3 5.7 0.2 -1.9 0.4 -6.6 0.2z M1594.8 971.2l0.9 -1.0 1.3 0.8 -0.4 1.4 -1.5 0.6z M340.6 33.4l3.6 -1.5 5.4 1.2 -1.8 2.1 -6.2 0.9z M26.4 549.1l0.6 -0.6 0.9 0.5 -0.3 0.8 -1.1 0.3z M1589.1 724.6l2.3 -0.4 3.5 0.3 -1.2 0.5 -4.1 0.2z M19.3 275.2l1.4 -1.2 2.0 1.0 -0.7 1.7 -2.4 0.7z M1570.8 85.1l3.3 -1.6 4.9 1.3 -1.6 2.2 -5.8 1.0z M1412.1 967.5l3.7 -1.0 5.5 0.8 -1.8 1.4 -6.5 0.6z M1577.4 257.1l3.0 -0.6 4.4 0.5 -1.5 0.9 -5.2 0.4z M94.5 993.6l0.6 -0.9 0.9 0.7 -0.3 1.3 -1.0 0.6z M915.4 978.1l3.1 -0.5 4.6 0.4 -1.5 0.6 -5.4 0.3z M30.6 386.5l0.3 -0.9 0.4 0.7 -0.1 1.2 -0.5 0.5z M1592.5 83.1l0.3 -0.2 0.5 0.2 -0.2 0.3 -0.6 0.1z M20.1 553.0l1.5 -1.0 2.2 0.8 -0.7 1.3 -2.6 0.6z M901.1 32.8l0.7 -1.2 1.0 1.0 -0.3 1.7 -1.2 0.7z M1584.3 777.4l2.3 -1.6 3.5 1.3 -1.2 2.3 -4.1 1.0z M508.8 980.6l3.0 -1.0 4.6 0.8 -1.5 1.4 -5.3 0.6z M1585.4 160.7l3.8 -0.2 5.6 0.2 -1.9 0.3 -6.6 0.1z M1571.7 590.8l0.5 -0.5 0.7 0.4 -0.2 0.7 -0.8 0.3z M1587.6 73.3l2.1 -0.7 3.1 0.6 -1.0 1.0 -3.6 0.4z M35.2 804.5l1.4 -1.5 2.1 1.2 -0.7 2.1 -2.5 0.9z M126.2 11.9l0.7 -1.1 1.1 0.9 -0.4 1.5 -1.2 0.7z M1575.7 421.3l1.9 -1.4 2.8 1.1 -0.9 1.9 -3.2 0.8z M215.5 977.9l1.7 -0.3 2.5 0.3 -0.8 0.5 -2.9 0.2z M33.9 969.2l3.3 -1.1 5.0 0.9 -1.7 1.5 -5.8 0.6z M1587.3 937.2l2.1 -0.3 3.2 0.2 -1.1 0.4 -3.8 0.2z M1574.4 807.3l1.3 -1.1 1.9 0.9 -0.6 1.6 -2.3 0.7z M1574.7 540.0l1.3 -1.0 2.0 0.8 -0.7 1.4 -2.3 0.6z M57.7 971.4l3.3 -1.0 5.0 0.8 -1.7 1.4 -5.8 0.6z M791.2 4.8l3.2 -0.4 4.9 0.3 -1.6 0.6 -5.7 0.2z M101.4 980.2l1.0 -1.5 1.5 1.2 -0.5 2.1 -1.8 0.9z M1569.5 343.1l2.1 -0.3 3.1 0.2 -1.0 0.4 -3.6 0.2z M1469.8 26.0l1.2 -0.9 1.8 0.7 -0.6 1.2 -2.1 0.5z M1169.3 991.0l2.3 -0.7 3.4 0.6 -1.1 1.0 -4.0 0.4z M468.4 24.8l3.5 -0.8 5.2 0.7 -1.7 1.2 -6.1 0.5z M16.2 481.1l1.6 -1.0 2.3 0.8 -0.8 1.5 -2.7 0.6z M1591.4 697.8l2.1 -0.6 3.1 0.5 -1.0 0.8 -3.7 0.3z M1574.3 526.3l2.8 -1.1 4.2 0.9 -1.4 1.5 -4.9 0.6z M7.2 936.9l0.4 -1.5 0.6 1.2 -0.2 2.1 -0.7 0.9z M1593.6 388.2l0.9 -1.6 1.3 1.3 -0.4 2.3 -1.5 1.0z M408.9 29.6l1.2 -0.5 1.8 0.4 -0.6 0.7 -2.1 0.3z M12.4 723.7l1.3 -1.1 2.0 0.9 -0.7 1.6 -2.3 0.7z M28.9 139.7l1.8 -1.5 2.8 1.2 -0.9 2.1 -3.2 0.9z M10.0 255.8l2.7 -0.8 4.0 0.6 -1.3 1.1 -4.6 0.5z M67.3 28.8l1.4 -0.9 2.0 0.7 -0.7 1.2 -2.4 0.5z M16.1 790.7l1.4 -1.0 2.1 0.8 -0.7 1.4 -2.4 0.6z M1580.2 224.3l1.4 -0.4 2.1 0.3 -0.7 0.6 -2.4 0.3z M1426.6 13.4l2.6 -1.7 3.9 1.3 -1.3 2.3 -4.6 1.0z M1579.0 336.4l1.1 -0.8 1.6 0.6 -0.5 1.1 -1.9 0.5z M1580.5 292.0l3.7 -1.2 5.6 1.0 -1.9 1.7 -6.5 0.7z M1313.6 966.3l3.4 -1.1 5.2 0.8 -1.7 1.5 -6.0 0.6z M1400.7 31.1l2.7 -1.5 4.1 1.2 -1.4 2.1 -4.7 0.9z M370.8 976.0l2.1 -0.6 3.1 0.5 -1.0 0.9 -3.6 0.4z M1577.3 467.5l0.3 -1.3 0.5 1.0 -0.2 1.8 -0.6 0.8z M6.9 109.0l3.1 -1.4 4.6 1.1 -1.5 2.0 -5.4 0.9z M1594.7 662.3l3.6 -0.7 5.4 0.5 -1.8 0.9 -6.3 0.4z M646.0 27.9l1.4 -1.3 2.1 1.0 -0.7 1.8 -2.4 0.8z M1571.7 92.5l3.1 -1.3 4.6 1.0 -1.5 1.8 -5.4 0.8z M34.9 548.0l3.8 -0.7 5.7 0.5 -1.9 0.9 -6.7 0.4z M1582.2 905.4l2.8 -0.4 4.2 0.3 -1.4 0.6 -4.8 0.2z M283.9 6.5l1.3 -1.3 1.9 1.0 -0.6 1.8 -2.2 0.8z M256.0 975.0l3.6 -1.5 5.3 1.2 -1.8 2.1 -6.2 0.9z M237.9 991.4l0.9 -0.8 1.3 0.6 -0.4 1.1 -1.6 0.5z M847.7 982.1l0.7 -0.8 1.1 0.7 -0.4 1.2 -1.2 0.5z M230.2 6.6l2.7 -0.3 4.0 0.2 -1.3 0.4 -4.7 0.2z M139.7 971.7l0.9 -0.9 1.4 0.7 -0.5 1.2 -1.6 0.5z M1303.5 983.0l2.9 -1.1 4.4 0.9 -1.5 1.6 -5.1 0.7z M1585.7 800.3l3.8 -1.0 5.8 0.8 -1.9 1.4 -6.7 0.6z M62.5 31.5l0.4 -1.6 0.6 1.3 -0.2 2.2 -0.8 1.0z M1349.2 13.5l3.5 -1.5 5.2 1.2 -1.7 2.1 -6.1 0.9z M463.2 23.3l3.7 -0.2 5.5 0.2 -1.8 0.3 -6.4 0.1z M1176.4 18.6l3.3 -1.5 5.0 1.2 -1.7 2.1 -5.8 0.9z M271.1 991.4l1.2 -1.0 1.7 0.8 -0.6 1.4 -2.0 0.6z M839.1 14.8l1.7 -1.1 2.6 0.9 -0.9 1.5 -3.0 0.7z M6.3 769.3l3.3 -0.6 5.0 0.5 -1.7 0.8 -5.8 0.3z M1001.0 29.6l3.0 -1.4 4.5 1.2 -1.5 2.0 -5.3 0.9z M25.5 379.8l1.1 -1.7 1.6 1.3 -0.5 2.4 -1.9 1.0z M1571.2 569.6l0.9 -1.7 1.4 1.3 -0.5 2.3 -1.6 1.0z M4.4 266.3l0.4 -1.0 0.5 0.8 -0.2 1.3 -0.6 0.6z M1501.3 15.4l1.4 -1.4 2.1 1.2 -0.7 2.0 -2.5 0.9z M1569.9 480.7l0.7 -0.7 1.1 0.6 -0.4 1.0 -1.2 0.4z" fill="#74371f" opacity="0.44"/>
    <path d="M318.9 30.6l1.4 -0.4 2.0 0.3 -0.7 0.6 -2.4 0.2z M1576.8 392.8l1.3 -0.6 1.9 0.5 -0.6 0.9 -2.2 0.4z M1587.3 300.7l3.5 -0.8 5.3 0.7 -1.8 1.2 -6.2 0.5z M4.4 227.8l2.5 -1.5 3.8 1.2 -1.3 2.2 -4.4 0.9z M1419.4 978.3l0.6 -1.2 0.9 1.0 -0.3 1.7 -1.1 0.7z M1577.4 393.5l2.8 -0.6 4.2 0.5 -1.4 0.9 -4.9 0.4z M947.2 19.8l1.1 -0.3 1.7 0.2 -0.6 0.4 -2.0 0.2z M724.3 3.7l1.9 -1.1 2.8 0.8 -0.9 1.5 -3.3 0.6z M24.2 651.5l2.5 -1.6 3.8 1.3 -1.3 2.2 -4.4 1.0z M263.2 9.4l3.6 -0.7 5.4 0.6 -1.8 1.0 -6.3 0.4z M492.0 967.1l2.4 -1.3 3.7 1.0 -1.2 1.8 -4.3 0.8z M907.8 977.9l1.9 -1.5 2.9 1.2 -1.0 2.1 -3.4 0.9z M1360.6 976.7l0.8 -0.7 1.1 0.6 -0.4 1.0 -1.3 0.4z M3.4 703.9l1.9 -0.3 2.8 0.3 -0.9 0.4 -3.3 0.2z M16.1 543.3l2.2 -1.0 3.4 0.8 -1.1 1.4 -3.9 0.6z M104.6 11.6l3.6 -0.8 5.4 0.7 -1.8 1.2 -6.3 0.5z M1581.4 506.8l2.0 -0.4 3.0 0.3 -1.0 0.5 -3.5 0.2z M1448.5 987.7l1.0 -0.8 1.6 0.6 -0.5 1.1 -1.8 0.5z M19.7 487.7l2.8 -0.7 4.1 0.5 -1.4 0.9 -4.8 0.4z M1117.5 26.5l3.0 -1.5 4.5 1.2 -1.5 2.2 -5.2 0.9z M24.0 19.6l1.7 -0.4 2.6 0.3 -0.9 0.6 -3.0 0.3z M316.6 987.3l3.7 -0.8 5.6 0.6 -1.9 1.1 -6.5 0.5z M1223.2 986.8l0.3 -0.9 0.5 0.7 -0.2 1.2 -0.6 0.5z M259.4 991.1l3.2 -1.3 4.8 1.1 -1.6 1.8 -5.5 0.8z M1141.8 972.8l0.6 -1.3 0.9 1.0 -0.3 1.8 -1.0 0.8z M1570.6 927.5l3.6 -0.7 5.4 0.5 -1.8 0.9 -6.3 0.4z M1542.9 11.0l3.5 -1.1 5.2 0.9 -1.7 1.6 -6.1 0.7z M697.3 968.3l2.1 -1.5 3.2 1.2 -1.1 2.0 -3.7 0.9z M9.1 496.7l1.4 -1.3 2.0 1.1 -0.7 1.9 -2.4 0.8z M220.8 27.3l0.7 -1.6 1.1 1.3 -0.4 2.3 -1.3 1.0z M983.3 32.4l2.2 -0.4 3.3 0.3 -1.1 0.5 -3.9 0.2z M1567.4 143.0l2.3 -1.5 3.4 1.2 -1.1 2.1 -4.0 0.9z M506.1 988.9l0.4 -0.8 0.6 0.7 -0.2 1.2 -0.7 0.5z M1583.1 49.1l3.8 -1.0 5.6 0.8 -1.9 1.4 -6.6 0.6z M6.2 474.6l3.2 -0.4 4.8 0.3 -1.6 0.6 -5.6 0.2z M1594.6 517.2l1.3 -1.0 1.9 0.8 -0.6 1.5 -2.3 0.6z M959.1 968.6l2.5 -1.0 3.7 0.8 -1.2 1.5 -4.4 0.6z M1472.8 972.6l0.8 -1.2 1.3 1.0 -0.4 1.7 -1.5 0.7z M18.1 17.9l1.6 -0.2 2.4 0.2 -0.8 0.3 -2.8 0.1z M44.6 3.8l3.8 -1.4 5.7 1.1 -1.9 1.9 -6.7 0.8z M1574.8 774.1l2.4 -0.3 3.6 0.3 -1.2 0.5 -4.2 0.2z M621.4 31.2l1.0 -0.7 1.5 0.5 -0.5 0.9 -1.8 0.4z M931.6 979.7l3.1 -0.5 4.6 0.4 -1.5 0.7 -5.3 0.3z M458.5 4.3l1.7 -1.0 2.6 0.8 -0.9 1.3 -3.0 0.6z M13.5 215.6l3.2 -0.6 4.8 0.5 -1.6 0.8 -5.6 0.3z M1566.9 355.0l2.8 -1.4 4.3 1.1 -1.4 1.9 -5.0 0.8z M1288.7 973.0l0.4 -1.3 0.6 1.1 -0.2 1.9 -0.7 0.8z M1577.7 288.6l3.8 -1.1 5.7 0.9 -1.9 1.5 -6.6 0.6z M5.1 757.0l2.2 -1.2 3.4 1.0 -1.1 1.7 -3.9 0.7z M18.1 165.3l2.0 -1.3 3.0 1.0 -1.0 1.8 -3.5 0.8z M8.6 165.0l2.0 -0.7 3.0 0.6 -1.0 1.0 -3.5 0.4z M5.2 313.3l2.9 -1.1 4.3 0.9 -1.4 1.5 -5.0 0.7z M17.5 699.5l2.8 -0.7 4.2 0.5 -1.4 0.9 -4.9 0.4z M1578.5 21.9l0.7 -0.9 1.0 0.7 -0.3 1.3 -1.2 0.5z M1440.5 13.9l1.1 -0.8 1.6 0.6 -0.5 1.1 -1.9 0.5z M662.1 4.8l3.1 -0.7 4.6 0.5 -1.5 0.9 -5.4 0.4z M1394.1 27.5l1.1 -1.7 1.6 1.3 -0.5 2.4 -1.9 1.0z M1338.5 26.1l2.2 -1.2 3.2 1.0 -1.1 1.7 -3.8 0.7z M29.9 909.7l1.9 -0.7 2.9 0.5 -1.0 0.9 -3.4 0.4z M530.1 8.0l3.7 -0.9 5.5 0.7 -1.8 1.2 -6.5 0.5z M1569.0 444.6l1.9 -1.4 2.8 1.1 -0.9 1.9 -3.2 0.8z M228.1 4.3l2.5 -1.0 3.7 0.8 -1.2 1.4 -4.3 0.6z M1180.7 8.5l1.5 -0.9 2.2 0.7 -0.7 1.3 -2.6 0.5z M737.1 31.8l3.4 -1.6 5.1 1.3 -1.7 2.3 -6.0 1.0z M1594.0 553.3l3.4 -1.3 5.2 1.0 -1.7 1.8 -6.0 0.8z M1554.7 973.3l0.4 -1.2 0.7 1.0 -0.2 1.7 -0.8 0.7z M1569.4 64.6l1.4 -0.7 2.0 0.5 -0.7 0.9 -2.4 0.4z M644.6 990.3l2.2 -1.4 3.3 1.1 -1.1 2.0 -3.9 0.9z M13.7 244.3l3.1 -1.3 4.6 1.0 -1.5 1.8 -5.4 0.8z M896.9 988.0l3.0 -1.4 4.6 1.1 -1.5 2.0 -5.3 0.8z M669.6 8.5l3.6 -0.7 5.4 0.6 -1.8 1.0 -6.3 0.4z M7.3 703.2l1.7 -1.7 2.5 1.4 -0.8 2.4 -2.9 1.0z M1579.5 635.5l1.7 -0.5 2.5 0.4 -0.8 0.7 -2.9 0.3z M16.7 95.1l3.4 -0.7 5.1 0.5 -1.7 0.9 -6.0 0.4z M1567.6 834.5l3.1 -0.6 4.6 0.5 -1.5 0.9 -5.4 0.4z M1590.2 99.5l0.7 -0.9 1.1 0.7 -0.4 1.2 -1.3 0.5z M1585.5 131.2l2.7 -0.4 4.1 0.3 -1.4 0.6 -4.8 0.2z M143.9 29.7l3.2 -0.5 4.7 0.4 -1.6 0.7 -5.5 0.3z M1285.9 992.1l3.5 -0.9 5.3 0.7 -1.8 1.3 -6.1 0.5z M749.5 24.8l0.5 -1.6 0.7 1.3 -0.2 2.3 -0.8 1.0z M1577.6 432.9l1.2 -1.1 1.7 0.9 -0.6 1.5 -2.0 0.7z M203.2 992.5l0.6 -1.2 0.9 1.0 -0.3 1.7 -1.1 0.7z M5.6 94.5l2.8 -0.8 4.3 0.6 -1.4 1.1 -5.0 0.5z M433.1 13.3l2.2 -0.5 3.2 0.4 -1.1 0.7 -3.8 0.3z M22.6 293.1l1.1 -1.3 1.7 1.0 -0.6 1.8 -1.9 0.8z M20.5 546.8l0.6 -1.6 0.9 1.3 -0.3 2.2 -1.0 0.9z M1580.6 553.2l2.6 -1.5 3.9 1.2 -1.3 2.2 -4.5 0.9z M1573.4 609.3l3.0 -1.0 4.5 0.8 -1.5 1.5 -5.3 0.6z M1568.8 339.9l3.4 -1.6 5.1 1.3 -1.7 2.3 -6.0 1.0z M1575.4 630.8l1.4 -0.9 2.2 0.7 -0.7 1.2 -2.5 0.5z M758.9 12.6l2.8 -0.6 4.3 0.5 -1.4 0.8 -5.0 0.3z M1255.3 34.4l1.4 -0.9 2.1 0.7 -0.7 1.3 -2.5 0.5z M1468.2 21.2l3.3 -1.3 4.9 1.1 -1.6 1.8 -5.7 0.8z M34.5 293.4l2.6 -0.4 3.9 0.4 -1.3 0.6 -4.5 0.3z M126.5 33.3l3.3 -0.9 4.9 0.8 -1.6 1.3 -5.7 0.6z M12.6 553.0l2.8 -0.3 4.1 0.2 -1.4 0.4 -4.8 0.2z M1169.1 9.9l1.3 -0.6 1.9 0.5 -0.6 0.9 -2.2 0.4z M1374.5 971.6l0.3 -1.7 0.5 1.3 -0.2 2.3 -0.6 1.0z M4.4 403.2l2.6 -1.0 3.9 0.8 -1.3 1.4 -4.6 0.6z M1587.4 289.5l0.3 -1.6 0.5 1.3 -0.2 2.3 -0.6 1.0z M1125.6 16.3l3.0 -1.6 4.5 1.3 -1.5 2.2 -5.2 0.9z M7.6 288.5l3.1 -1.4 4.6 1.1 -1.5 2.0 -5.4 0.9z M1590.0 821.6l0.6 -1.3 0.9 1.1 -0.3 1.9 -1.1 0.8z M1440.6 30.6l3.5 -1.5 5.3 1.2 -1.8 2.1 -6.2 0.9z M797.9 17.1l3.6 -1.5 5.4 1.2 -1.8 2.2 -6.4 0.9z" fill="#20150f" opacity="0.7"/>
    <path d="M12.7 931.0l3.2 -0.3 4.8 0.2 -1.6 0.4 -5.6 0.2z M184.7 35.0l0.3 -0.9 0.5 0.7 -0.2 1.2 -0.6 0.5z M1581.7 26.7l2.7 -1.3 4.1 1.0 -1.4 1.8 -4.8 0.8z M1573.6 624.7l3.8 -0.9 5.7 0.7 -1.9 1.2 -6.7 0.5z M959.5 989.5l2.8 -1.5 4.1 1.2 -1.4 2.2 -4.8 0.9z M619.8 6.3l2.2 -0.3 3.3 0.3 -1.1 0.5 -3.9 0.2z M459.4 8.5l2.7 -0.9 4.0 0.7 -1.3 1.2 -4.7 0.5z M25.8 542.2l0.6 -1.0 0.9 0.8 -0.3 1.4 -1.1 0.6z M1576.2 816.1l3.8 -0.8 5.7 0.7 -1.9 1.2 -6.7 0.5z M1592.0 179.2l0.5 -0.8 0.7 0.6 -0.2 1.1 -0.8 0.5z M539.4 994.0l1.3 -1.0 1.9 0.8 -0.6 1.4 -2.2 0.6z M28.9 433.3l1.7 -0.4 2.5 0.3 -0.8 0.5 -2.9 0.2z M217.5 980.6l1.0 -1.4 1.4 1.1 -0.5 2.0 -1.7 0.9z M518.2 16.9l3.9 -1.2 5.8 0.9 -1.9 1.6 -6.8 0.7z M190.0 17.5l0.8 -1.5 1.3 1.2 -0.4 2.1 -1.5 0.9z M886.2 980.1l1.4 -1.5 2.1 1.2 -0.7 2.0 -2.5 0.9z M1566.4 709.4l3.7 -0.8 5.5 0.6 -1.8 1.1 -6.4 0.5z M1492.8 3.4l2.9 -1.0 4.3 0.8 -1.4 1.4 -5.0 0.6z M22.9 913.4l1.8 -1.3 2.7 1.0 -0.9 1.8 -3.2 0.8z M1533.3 10.3l0.9 -0.7 1.3 0.5 -0.4 1.0 -1.5 0.4z M35.5 310.9l2.1 -0.9 3.1 0.8 -1.0 1.3 -3.7 0.6z M1576.8 232.7l1.0 -1.5 1.5 1.2 -0.5 2.1 -1.8 0.9z M158.8 15.8l3.4 -0.3 5.2 0.2 -1.7 0.4 -6.0 0.2z M1594.9 246.3l1.6 -1.2 2.3 0.9 -0.8 1.6 -2.7 0.7z M459.9 4.7l3.0 -1.6 4.5 1.3 -1.5 2.3 -5.3 1.0z M582.3 18.3l1.9 -1.2 2.9 1.0 -1.0 1.7 -3.3 0.7z M172.2 987.7l3.2 -1.5 4.8 1.2 -1.6 2.1 -5.6 0.9z M1572.1 847.5l2.6 -0.7 3.9 0.6 -1.3 1.0 -4.5 0.4z M1581.5 436.3l0.5 -0.5 0.8 0.4 -0.3 0.7 -0.9 0.3z M1577.2 737.6l2.7 -0.9 4.0 0.7 -1.3 1.3 -4.7 0.6z M993.2 3.8l2.2 -1.5 3.4 1.2 -1.1 2.1 -3.9 0.9z M1443.7 976.6l1.5 -1.0 2.3 0.8 -0.8 1.4 -2.7 0.6z M1575.9 832.6l3.2 -1.4 4.8 1.1 -1.6 1.9 -5.6 0.8z M1383.0 29.8l2.9 -1.6 4.4 1.3 -1.5 2.2 -5.1 0.9z M137.4 6.9l0.7 -0.9 1.1 0.7 -0.4 1.2 -1.3 0.5z M31.5 483.0l1.6 -1.0 2.3 0.8 -0.8 1.4 -2.7 0.6z M768.5 986.8l2.0 -0.5 3.0 0.4 -1.0 0.8 -3.5 0.3z M811.0 34.9l1.8 -1.7 2.8 1.3 -0.9 2.4 -3.2 1.0z M762.3 33.7l2.3 -0.9 3.5 0.7 -1.2 1.3 -4.1 0.5z M28.6 607.7l1.5 -0.6 2.2 0.5 -0.7 0.9 -2.6 0.4z M452.8 991.9l2.0 -0.5 3.1 0.4 -1.0 0.7 -3.6 0.3z M15.0 962.7l2.1 -1.1 3.2 0.9 -1.1 1.5 -3.7 0.6z M283.4 995.4l2.5 -0.5 3.7 0.4 -1.2 0.7 -4.4 0.3z M224.2 4.2l2.1 -1.1 3.1 0.9 -1.0 1.5 -3.6 0.6z M30.8 250.4l1.7 -1.1 2.5 0.8 -0.8 1.5 -3.0 0.6z M1057.2 992.7l2.4 -1.5 3.7 1.2 -1.2 2.1 -4.3 0.9z M1017.0 975.4l0.6 -0.9 0.9 0.8 -0.3 1.3 -1.0 0.6z M807.5 22.6l0.3 -1.0 0.5 0.8 -0.2 1.4 -0.6 0.6z M1584.7 383.4l3.4 -1.5 5.1 1.2 -1.7 2.1 -5.9 0.9z M1425.5 30.7l1.7 -0.3 2.5 0.2 -0.8 0.4 -2.9 0.2z M35.5 544.5l0.6 -0.6 0.8 0.5 -0.3 0.8 -1.0 0.3z M1401.6 7.1l2.4 -0.3 3.6 0.2 -1.2 0.4 -4.1 0.2z M1571.0 611.1l2.5 -0.3 3.8 0.3 -1.3 0.5 -4.4 0.2z M420.3 984.1l2.9 -0.6 4.4 0.5 -1.5 0.8 -5.1 0.4z M5.7 911.3l2.4 -0.6 3.6 0.4 -1.2 0.8 -4.2 0.3z M1579.9 694.2l3.7 -0.7 5.6 0.6 -1.9 1.0 -6.5 0.4z M5.6 962.4l2.3 -0.4 3.4 0.3 -1.1 0.5 -3.9 0.2z M1225.8 31.4l2.5 -1.5 3.8 1.2 -1.3 2.1 -4.4 0.9z M1103.2 17.8l2.3 -0.6 3.4 0.5 -1.1 0.9 -4.0 0.4z M201.3 984.7l2.1 -1.1 3.2 0.9 -1.1 1.5 -3.7 0.6z M1582.7 934.5l0.9 -1.3 1.4 1.0 -0.5 1.8 -1.6 0.8z M1577.0 562.5l3.9 -0.6 5.8 0.5 -1.9 0.8 -6.7 0.3z M26.6 699.1l0.6 -1.2 0.9 0.9 -0.3 1.6 -1.0 0.7z M322.6 985.3l3.8 -0.2 5.7 0.2 -1.9 0.3 -6.6 0.1z M161.4 26.9l2.4 -0.8 3.6 0.6 -1.2 1.1 -4.2 0.5z M1569.0 447.5l3.9 -1.3 5.8 1.0 -1.9 1.8 -6.7 0.8z M1588.2 596.7l2.2 -0.3 3.3 0.2 -1.1 0.4 -3.9 0.2z M881.8 28.0l3.6 -1.1 5.5 0.9 -1.8 1.5 -6.4 0.6z M270.1 985.8l1.8 -0.8 2.7 0.6 -0.9 1.1 -3.1 0.5z M105.0 32.8l0.8 -1.1 1.2 0.9 -0.4 1.6 -1.4 0.7z M13.1 400.3l3.1 -1.4 4.7 1.1 -1.6 1.9 -5.5 0.8z M3.4 668.4l3.5 -1.3 5.3 1.0 -1.8 1.8 -6.2 0.8z M1460.2 992.2l1.5 -0.7 2.2 0.6 -0.7 1.0 -2.6 0.4z M23.2 629.2l1.8 -0.9 2.7 0.7 -0.9 1.2 -3.1 0.5z M1583.8 834.9l2.7 -0.8 4.0 0.6 -1.3 1.1 -4.7 0.5z M1000.6 989.5l3.4 -1.2 5.1 1.0 -1.7 1.7 -5.9 0.7z M12.4 443.0l1.3 -1.5 2.0 1.2 -0.7 2.1 -2.3 0.9z M323.7 990.0l1.5 -0.7 2.3 0.5 -0.8 1.0 -2.6 0.4z M862.4 990.6l2.0 -1.2 2.9 1.0 -1.0 1.7 -3.4 0.7z M441.8 9.5l2.7 -1.0 4.0 0.8 -1.3 1.4 -4.6 0.6z M1569.2 552.5l1.9 -1.3 2.9 1.0 -1.0 1.8 -3.4 0.8z M27.7 682.2l1.8 -0.8 2.7 0.6 -0.9 1.1 -3.2 0.5z M1581.5 433.5l0.7 -0.7 1.0 0.5 -0.3 1.0 -1.2 0.4z M1042.1 971.9l2.7 -0.7 4.1 0.5 -1.4 0.9 -4.8 0.4z M1512.4 16.7l2.4 -0.6 3.5 0.5 -1.2 0.9 -4.1 0.4z M16.6 904.6l3.0 -0.7 4.5 0.6 -1.5 1.0 -5.2 0.4z M5.7 989.3l1.2 -0.9 1.8 0.7 -0.6 1.2 -2.1 0.5z M1028.1 6.3l2.5 -0.4 3.8 0.3 -1.3 0.6 -4.4 0.2z M1590.6 990.8l0.5 -0.3 0.7 0.2 -0.2 0.4 -0.8 0.2z M1570.2 846.7l1.7 -0.9 2.6 0.8 -0.9 1.3 -3.0 0.6z M18.1 388.4l1.8 -1.0 2.7 0.8 -0.9 1.3 -3.1 0.6z M1583.7 545.0l1.7 -1.0 2.6 0.8 -0.9 1.5 -3.0 0.6z M242.1 988.3l1.2 -1.0 1.8 0.8 -0.6 1.4 -2.2 0.6z M1579.9 833.8l3.8 -0.7 5.7 0.5 -1.9 0.9 -6.7 0.4z M1588.3 115.2l0.5 -1.0 0.8 0.8 -0.3 1.4 -0.9 0.6z M3.5 525.4l1.5 -1.6 2.2 1.3 -0.7 2.2 -2.6 1.0z M717.2 995.3l2.8 -0.7 4.1 0.5 -1.4 0.9 -4.8 0.4z M522.5 969.1l2.7 -1.1 4.1 0.8 -1.4 1.5 -4.8 0.6z M1582.6 20.5l3.9 -0.4 5.8 0.4 -1.9 0.6 -6.8 0.3z M1587.3 768.7l1.3 -1.3 2.0 1.0 -0.7 1.8 -2.3 0.8z M1584.5 503.3l3.5 -0.8 5.3 0.6 -1.8 1.1 -6.2 0.5z M1472.4 27.1l1.4 -0.8 2.0 0.7 -0.7 1.2 -2.4 0.5z M1586.6 353.3l2.6 -1.2 3.9 1.0 -1.3 1.7 -4.5 0.7z M14.7 278.3l1.9 -1.6 2.8 1.3 -0.9 2.3 -3.3 1.0z M34.3 646.3l2.5 -0.5 3.7 0.4 -1.2 0.8 -4.3 0.3z" fill="#d69453" opacity="0.44"/>
    <path d="M31.1 3.5l1.9 -1.4 2.8 1.1 -0.9 2.0 -3.3 0.9z M451.4 979.6l0.6 -0.4 0.9 0.3 -0.3 0.6 -1.1 0.3z M45.3 969.6l2.9 -0.6 4.4 0.4 -1.5 0.8 -5.1 0.3z M161.0 31.9l0.7 -1.4 1.0 1.1 -0.3 1.9 -1.2 0.8z M169.3 32.2l2.7 -0.6 4.1 0.5 -1.4 0.8 -4.8 0.4z M1139.7 977.6l3.8 -1.2 5.7 0.9 -1.9 1.6 -6.6 0.7z M12.1 769.6l0.7 -0.2 1.1 0.2 -0.4 0.3 -1.3 0.1z M1102.8 21.8l0.4 -0.8 0.5 0.7 -0.2 1.2 -0.6 0.5z M23.2 584.9l1.7 -1.7 2.6 1.4 -0.9 2.4 -3.0 1.0z M1571.4 246.6l1.6 -0.8 2.4 0.6 -0.8 1.1 -2.8 0.5z M948.7 24.0l2.1 -0.9 3.1 0.7 -1.0 1.2 -3.7 0.5z M444.3 985.5l0.6 -0.6 0.8 0.5 -0.3 0.9 -1.0 0.4z M1577.8 406.2l2.8 -1.4 4.2 1.2 -1.4 2.0 -4.9 0.9z M1583.3 812.6l2.1 -1.6 3.2 1.2 -1.1 2.2 -3.7 0.9z M19.3 525.4l2.5 -1.6 3.7 1.3 -1.2 2.2 -4.3 0.9z M1385.2 8.5l1.5 -0.9 2.2 0.7 -0.7 1.2 -2.6 0.5z M918.9 975.6l1.6 -0.5 2.4 0.4 -0.8 0.7 -2.8 0.3z M13.1 40.9l0.4 -1.2 0.7 0.9 -0.2 1.6 -0.8 0.7z M887.7 9.4l1.3 -1.2 1.9 0.9 -0.6 1.7 -2.2 0.7z M1572.0 25.5l0.8 -0.3 1.2 0.2 -0.4 0.4 -1.4 0.2z M1589.9 979.9l0.9 -0.8 1.3 0.7 -0.4 1.1 -1.5 0.5z M1578.3 360.2l3.2 -0.3 4.7 0.2 -1.6 0.4 -5.5 0.2z M68.3 11.6l0.8 -1.0 1.2 0.8 -0.4 1.3 -1.4 0.6z M766.4 17.1l2.4 -1.0 3.6 0.8 -1.2 1.4 -4.2 0.6z M1198.4 7.7l2.1 -0.3 3.2 0.2 -1.1 0.4 -3.7 0.2z M1573.6 377.6l2.5 -1.0 3.7 0.8 -1.2 1.5 -4.4 0.6z M99.7 6.2l1.8 -0.2 2.8 0.2 -0.9 0.3 -3.2 0.1z M12.8 753.2l2.0 -0.4 3.0 0.3 -1.0 0.5 -3.4 0.2z M1592.4 664.8l2.5 -1.5 3.8 1.2 -1.3 2.1 -4.4 0.9z M275.8 992.9l2.6 -1.5 4.0 1.2 -1.3 2.0 -4.6 0.9z M13.8 507.6l1.4 -0.4 2.1 0.3 -0.7 0.5 -2.5 0.2z M31.9 938.5l3.3 -0.7 5.0 0.5 -1.7 0.9 -5.8 0.4z M840.7 21.2l2.3 -1.2 3.4 1.0 -1.1 1.7 -4.0 0.7z M30.2 377.6l0.5 -0.3 0.7 0.3 -0.2 0.5 -0.9 0.2z M1595.0 257.8l1.4 -1.1 2.0 0.9 -0.7 1.6 -2.4 0.7z M1525.2 21.7l3.0 -1.2 4.5 0.9 -1.5 1.6 -5.2 0.7z M1571.0 989.0l2.7 -0.9 4.1 0.7 -1.4 1.2 -4.7 0.5z M8.9 257.7l0.4 -1.0 0.6 0.8 -0.2 1.3 -0.7 0.6z M35.7 825.7l2.1 -1.3 3.1 1.1 -1.0 1.9 -3.7 0.8z M1591.7 239.4l2.8 -0.3 4.2 0.2 -1.4 0.4 -4.9 0.2z M464.8 988.1l2.8 -0.2 4.2 0.2 -1.4 0.3 -4.9 0.1z M547.1 27.0l2.8 -0.3 4.3 0.3 -1.4 0.5 -5.0 0.2z M14.1 910.2l2.3 -1.2 3.4 1.0 -1.1 1.7 -4.0 0.7z M24.2 941.7l3.8 -0.4 5.7 0.3 -1.9 0.5 -6.6 0.2z M1588.2 766.5l0.5 -0.8 0.8 0.7 -0.3 1.1 -0.9 0.5z M25.8 900.7l1.5 -0.7 2.3 0.5 -0.8 0.9 -2.6 0.4z M938.9 21.1l3.3 -1.2 5.0 0.9 -1.7 1.7 -5.8 0.7z M533.5 18.5l3.3 -0.3 4.9 0.3 -1.6 0.4 -5.8 0.2z M15.2 812.1l1.8 -1.5 2.7 1.2 -0.9 2.1 -3.2 0.9z M1566.3 481.8l2.5 -0.9 3.8 0.7 -1.3 1.2 -4.4 0.5z M1276.1 993.4l0.5 -1.1 0.7 0.9 -0.2 1.5 -0.8 0.6z M23.4 147.8l1.2 -0.4 1.8 0.3 -0.6 0.6 -2.1 0.3z M1521.3 975.6l2.4 -1.5 3.6 1.2 -1.2 2.1 -4.2 0.9z M898.6 14.5l1.5 -1.0 2.3 0.8 -0.8 1.3 -2.7 0.6z M4.9 112.9l1.6 -1.1 2.4 0.9 -0.8 1.6 -2.9 0.7z M1583.0 351.5l2.6 -1.3 3.9 1.0 -1.3 1.8 -4.6 0.8z M12.1 81.3l0.4 -0.9 0.6 0.7 -0.2 1.2 -0.8 0.5z M558.4 25.1l2.1 -0.6 3.2 0.5 -1.1 0.8 -3.7 0.4z M1055.1 983.8l3.4 -0.6 5.0 0.5 -1.7 0.9 -5.9 0.4z M9.2 638.3l3.1 -0.5 4.7 0.4 -1.6 0.7 -5.4 0.3z M1133.9 13.2l3.5 -0.8 5.2 0.6 -1.7 1.1 -6.1 0.5z M34.4 460.3l2.7 -0.9 4.1 0.7 -1.4 1.3 -4.8 0.6z M4.4 941.7l2.3 -1.1 3.4 0.8 -1.1 1.5 -4.0 0.6z M34.3 457.7l3.6 -0.5 5.4 0.4 -1.8 0.6 -6.3 0.3z M454.2 977.3l0.6 -0.7 0.9 0.6 -0.3 1.0 -1.0 0.4z M1119.7 987.6l1.2 -1.1 1.8 0.9 -0.6 1.5 -2.1 0.6z M1415.8 8.9l2.9 -0.9 4.3 0.7 -1.4 1.3 -5.1 0.5z M828.0 27.2l2.9 -0.5 4.3 0.4 -1.4 0.7 -5.0 0.3z M1430.3 994.8l3.7 -0.5 5.5 0.4 -1.8 0.7 -6.4 0.3z M168.8 981.5l3.4 -0.7 5.1 0.6 -1.7 1.0 -5.9 0.4z M1595.6 891.7l0.6 -0.5 0.9 0.4 -0.3 0.7 -1.0 0.3z M15.1 821.9l2.3 -0.6 3.4 0.5 -1.1 0.8 -4.0 0.3z M12.6 466.2l2.2 -0.8 3.3 0.6 -1.1 1.1 -3.8 0.5z M1224.9 987.0l0.4 -0.6 0.6 0.5 -0.2 0.9 -0.7 0.4z M31.1 752.1l3.2 -0.3 4.7 0.2 -1.6 0.4 -5.5 0.2z M4.0 622.1l1.2 -1.1 1.8 0.9 -0.6 1.5 -2.1 0.7z M34.3 34.9l1.8 -1.4 2.7 1.2 -0.9 2.0 -3.2 0.9z M1571.6 101.5l3.6 -1.4 5.4 1.1 -1.8 2.0 -6.3 0.9z M1568.0 262.7l3.9 -1.0 5.8 0.8 -1.9 1.4 -6.7 0.6z M172.5 991.2l1.7 -1.4 2.6 1.1 -0.9 1.9 -3.0 0.8z M3.7 503.0l3.2 -1.4 4.8 1.1 -1.6 1.9 -5.6 0.8z M382.3 15.1l3.3 -0.8 5.0 0.6 -1.7 1.1 -5.8 0.5z M1593.9 813.8l2.5 -0.9 3.7 0.7 -1.2 1.3 -4.4 0.5z M550.8 25.4l2.8 -1.5 4.2 1.2 -1.4 2.1 -4.9 0.9z M1595.0 63.0l3.7 -0.8 5.6 0.7 -1.9 1.2 -6.5 0.5z M1571.5 821.2l2.2 -0.6 3.4 0.5 -1.1 0.8 -3.9 0.3z M1461.5 15.2l0.8 -1.3 1.2 1.1 -0.4 1.9 -1.4 0.8z M1576.4 488.2l0.7 -1.6 1.1 1.3 -0.4 2.3 -1.3 1.0z M1581.7 563.9l2.6 -1.4 3.9 1.1 -1.3 2.0 -4.5 0.9z M1580.5 15.7l3.2 -0.9 4.8 0.7 -1.6 1.3 -5.6 0.5z M1408.3 15.4l2.0 -0.7 3.0 0.6 -1.0 1.0 -3.5 0.4z M29.1 91.3l2.7 -0.5 4.0 0.4 -1.3 0.7 -4.7 0.3z M1569.6 655.4l3.8 -0.9 5.7 0.7 -1.9 1.3 -6.7 0.5z M1373.7 990.3l3.1 -0.5 4.7 0.4 -1.6 0.7 -5.5 0.3z M295.3 986.5l3.6 -1.4 5.4 1.1 -1.8 2.0 -6.3 0.8z M1571.5 865.3l0.7 -0.8 1.1 0.6 -0.4 1.1 -1.2 0.5z M1595.3 231.0l2.7 -0.8 4.0 0.6 -1.3 1.1 -4.7 0.5z M433.0 971.2l3.5 -1.3 5.3 1.0 -1.8 1.8 -6.1 0.8z M4.9 623.9l0.7 -1.5 1.0 1.2 -0.3 2.1 -1.2 0.9z M774.9 29.2l0.9 -0.8 1.3 0.7 -0.4 1.2 -1.6 0.5z M1576.8 871.5l2.7 -0.6 4.1 0.5 -1.4 0.8 -4.7 0.4z M1272.5 968.0l1.8 -0.6 2.8 0.5 -0.9 0.9 -3.2 0.4z M1449.8 19.8l1.5 -0.8 2.3 0.7 -0.8 1.1 -2.7 0.5z M382.0 966.9l2.2 -0.5 3.2 0.4 -1.1 0.7 -3.8 0.3z M1328.6 11.0l3.6 -1.4 5.4 1.1 -1.8 2.0 -6.3 0.9z" fill="#493020" opacity="0.44"/>
    <path d="M163.6 971.5l6.6 -0.9 M1465.5 9.3l15.8 0.1 M1339.4 986.7l3.2 -0.2 M178.1 22.6l12.0 0.7 M223.2 21.0l18.6 -0.9 M1418.1 976.4l11.0 0.7 M710.0 973.6l7.5 -0.1 M1145.5 10.6l3.5 -0.4 M754.0 991.3l22.2 0.3 M777.4 25.9l19.7 0.7 M516.2 15.6l6.8 0.3 M508.2 13.4l12.5 -0.1 M656.6 14.4l2.1 0.1 M1366.9 977.7l19.5 -0.9 M227.3 970.6l5.1 -1.0 M228.6 978.8l13.3 1.0 M1552.1 7.9l17.1 0.2 M578.0 27.1l17.3 0.7 M651.3 25.2l3.2 -0.1 M1031.0 972.1l20.7 0.3 M1123.8 5.9l9.9 -0.7 M1130.2 14.3l21.1 -0.1 M602.1 25.9l4.6 0.5 M1459.0 981.4l8.4 0.3 M866.1 970.2l17.1 -0.4 M757.2 972.4l13.5 -0.4 M337.2 978.6l22.3 0.4 M972.1 26.5l16.6 -1.0 M666.7 984.8l12.4 -0.5 M544.9 11.5l23.8 -0.8 M390.8 970.6l11.7 0.4 M406.3 985.6l18.5 0.5 M1047.0 26.5l5.6 0.3 M646.3 979.1l22.0 -0.8 M826.6 31.7l16.4 -0.9 M1524.1 980.3l21.3 -0.6 M684.4 990.1l14.3 1.0 M497.2 986.5l5.2 -0.8 M1536.6 976.2l2.2 -0.8 M1377.7 978.9l4.0 -0.7 M1243.0 31.2l14.6 -0.8 M259.0 16.8l10.9 0.2 M1409.9 976.1l5.5 -0.3 M12.5 6.4l23.8 0.5 M1536.9 14.0l4.0 0.3 M613.1 977.3l21.3 -0.3 M996.9 983.9l18.2 -0.5 M433.4 17.5l17.2 0.1 M251.6 986.4l8.5 -0.5 M31.5 20.4l9.4 -0.1 M893.8 991.8l3.3 -0.9 M961.4 15.7l13.1 -0.1 M1247.8 982.7l2.0 0.5 M249.3 6.7l14.2 -0.6 M1272.1 25.4l23.6 0.9 M1302.9 974.7l7.3 -0.5 M1473.3 7.1l21.0 0.5 M663.5 29.1l23.3 0.1 M379.1 13.1l10.9 0.4 M859.2 29.8l7.7 -0.5 M1107.7 26.8l12.7 -0.5 M1183.6 22.6l22.2 0.3 M1433.1 16.6l2.8 -0.8 M199.7 981.9l17.6 -0.2 M764.5 30.8l19.9 0.1 M1458.6 992.7l23.0 -0.2 M939.2 989.6l12.2 0.7 M1023.8 984.8l13.3 0.3 M577.0 26.0l9.7 -0.5 M805.7 975.1l23.2 0.5 M650.1 992.3l17.1 0.6 M337.7 8.6l4.1 -0.3 M390.8 29.0l3.2 -0.4 M365.2 10.6l5.4 -0.9 M997.7 980.9l14.0 0.9 M568.9 9.5l21.3 0.3 M689.7 992.9l22.7 0.5 M1407.7 22.6l5.1 1.0 M1419.9 13.7l20.3 0.1 M146.4 28.8l2.7 0.8 M1079.8 23.4l20.0 -0.5 M516.9 982.5l17.3 0.0 M1407.0 986.8l21.9 -0.9 M1468.7 24.7l3.4 -0.2 M1555.6 7.9l15.3 -0.9 M374.8 981.2l20.6 -1.0 M1294.8 977.5l5.7 0.8 M1586.7 5.6l5.4 -0.0 M974.5 26.9l5.9 -0.5 M873.0 5.9l11.0 0.9 M626.2 983.9l17.5 -0.0 M124.6 13.6l10.9 -0.2 M364.1 991.9l18.3 -0.6 M1275.8 977.9l7.0 -0.9 M310.2 13.5l22.3 -0.3 M166.4 22.8l9.1 0.6 M1486.6 985.6l4.2 -0.1 M1359.5 24.7l13.7 -0.7 M799.3 980.7l2.9 1.0 M630.0 28.0l7.6 -0.9 M1087.1 980.8l10.8 0.4 M1053.9 30.5l9.3 0.1 M113.2 993.0l17.0 0.4 M1456.0 10.2l15.8 -0.7 M849.0 22.6l4.4 0.2 M109.5 976.0l18.3 0.8 M733.1 979.2l2.8 0.8 M136.1 16.7l4.7 -1.0 M682.2 979.1l12.0 0.9 M1317.3 985.8l13.9 -0.8" fill="none" stroke="#c3b18e" stroke-opacity="0.38" stroke-width=".65"/>
    <path d="M1190.2 24.5l7.2 -0.3 M104.3 989.5l7.0 -0.7 M969.6 30.1l12.0 0.3 M403.9 29.7l13.3 -0.1 M1375.7 27.9l23.5 -0.5 M718.0 22.7l17.3 -1.0 M1395.7 987.8l9.1 -0.0 M529.6 987.8l8.6 0.8 M1395.3 992.1l13.4 0.0 M1353.6 12.0l23.7 -0.9 M384.0 10.6l21.6 0.5 M111.7 977.5l19.0 -0.8 M1394.4 981.9l14.0 -0.3 M1339.7 992.0l15.4 -0.6 M1165.8 13.0l7.9 0.8 M700.6 29.5l6.8 0.8 M578.5 10.4l15.5 1.0 M256.0 8.5l22.7 0.4 M508.7 974.0l23.7 -0.7 M431.3 985.7l20.9 0.8 M453.9 22.9l3.7 -0.2 M319.9 971.7l3.5 -0.7 M525.8 980.0l7.2 0.6 M1377.2 982.9l11.1 -0.1 M113.7 6.8l19.4 -1.0 M188.5 991.6l14.1 -0.9 M1194.4 26.6l2.4 0.8 M330.5 19.4l19.9 -0.6 M594.3 22.0l22.1 -0.9 M298.1 18.8l8.1 -0.5 M406.9 979.6l8.4 -0.3 M133.4 26.2l7.0 -0.2 M526.8 988.6l16.3 0.6 M269.1 24.2l19.3 -0.7 M1579.1 17.5l11.3 0.3 M687.3 973.0l23.7 -0.1 M909.3 25.0l19.3 -0.3 M1299.3 972.7l16.8 0.8 M441.9 30.9l14.7 0.9 M1161.5 984.0l6.3 -0.8 M423.9 972.1l8.0 0.7 M1271.8 28.4l2.5 0.6 M1440.8 989.7l19.3 0.6 M530.7 14.5l22.4 -0.9 M1524.5 981.1l8.4 0.9 M1100.7 986.1l23.2 -0.7 M967.8 28.9l21.1 -0.6 M1562.3 31.4l10.9 0.0 M1519.5 6.9l12.9 -0.8 M1242.7 7.9l18.5 0.2 M1451.3 986.9l11.6 0.5 M1381.2 9.8l15.4 -0.9 M875.2 5.2l11.1 0.9 M1296.4 986.2l2.2 0.6 M729.2 981.3l16.7 -0.2 M136.0 12.0l3.8 -0.3 M564.3 27.1l6.3 -0.8 M15.7 979.1l3.5 0.6 M728.9 17.4l14.6 0.9 M491.4 986.9l23.4 -0.1 M684.7 30.7l4.6 -0.3 M1463.5 991.8l12.4 -0.6 M1481.2 987.6l21.5 -1.0 M1472.8 13.8l14.3 -0.7 M173.7 970.8l16.7 -0.0 M1427.7 992.3l3.3 0.2 M1291.3 978.4l22.9 0.4 M186.7 990.6l18.9 0.4 M1042.5 20.2l23.7 0.5 M627.7 17.3l9.2 0.2 M292.8 15.5l3.1 0.5 M943.4 10.0l13.0 0.7 M155.8 7.4l3.3 0.9 M434.4 979.9l21.3 0.8 M209.5 29.8l5.6 0.4 M1305.8 16.9l17.4 -0.7 M1582.3 8.5l22.8 -0.3 M1228.9 976.7l5.1 -0.8 M1549.9 983.7l4.3 0.9 M189.8 974.1l12.9 0.6 M1339.5 978.1l20.9 -0.2 M1526.1 990.7l18.4 0.6 M1460.1 986.8l11.8 0.2 M1541.4 988.4l22.1 0.9 M760.1 987.1l2.6 -0.5 M1186.7 982.1l6.3 0.7 M658.4 988.0l18.9 0.7 M315.6 986.9l22.0 -0.2 M1102.5 28.3l12.2 -0.5 M1243.3 11.0l17.7 -0.0 M1079.0 977.6l3.5 -0.7 M281.0 977.6l19.0 -0.1 M1232.5 978.2l7.0 -0.4 M1266.1 974.6l11.1 -0.4 M247.3 992.6l11.7 0.8 M1577.0 986.1l4.2 -0.1 M1399.8 977.1l18.9 0.3 M392.0 11.8l6.7 0.8 M14.2 988.1l8.3 -0.2 M347.0 974.2l23.0 -0.7 M534.7 9.6l10.4 0.5 M543.2 979.2l3.6 0.6 M1272.0 8.4l17.3 0.5 M1573.2 10.8l21.5 0.3 M491.2 976.7l21.7 -1.0 M1159.6 10.0l12.8 0.6 M1479.1 973.1l20.3 -0.2 M238.1 23.8l21.0 -0.5 M658.6 977.1l5.3 0.5 M770.7 978.6l10.5 -0.1 M1017.0 8.5l8.8 0.5 M1537.3 973.9l10.7 -0.3 M370.1 30.0l21.6 -0.9 M330.6 30.9l19.1 -0.3 M805.4 984.0l2.3 -0.8 M869.2 979.4l9.5 0.7 M1330.8 27.4l2.7 0.5 M443.6 986.4l20.6 -0.8 M1199.7 987.9l20.9 0.8 M1526.3 10.8l5.8 0.9 M1091.3 25.6l14.3 -1.0 M1002.0 24.4l9.3 -0.2 M1396.6 23.7l9.3 0.1 M1212.5 20.2l17.6 0.1 M991.2 6.1l11.9 0.3 M964.8 983.5l10.6 -0.0 M572.8 980.0l22.1 -0.9 M512.5 13.6l15.5 0.7 M1199.0 992.8l9.4 -0.9 M1199.0 977.7l7.5 -0.4 M780.8 31.2l17.1 0.2 M437.8 975.4l4.4 0.6 M670.7 8.3l21.9 0.1 M910.8 971.5l11.0 1.0 M828.1 19.9l18.1 -0.7 M1373.7 991.2l18.2 -0.8 M1055.2 992.7l6.1 -0.4 M990.7 5.1l4.9 -0.6 M1163.9 989.0l4.6 0.4 M153.5 992.8l5.5 0.1 M1169.2 971.5l6.4 0.9 M797.2 980.9l13.6 -0.7 M199.0 970.5l14.6 -0.3 M1583.8 21.7l7.1 -0.4 M1067.7 8.7l16.3 1.0 M905.6 28.9l13.0 -0.8 M1282.8 29.2l5.5 1.0 M346.8 972.9l22.6 0.6 M1534.4 30.1l17.1 0.6 M744.4 989.1l7.1 -0.0 M364.0 976.5l14.1 0.6 M3.5 16.6l20.6 -0.3 M1218.1 970.7l20.6 0.8 M1247.4 27.4l4.5 -0.8 M1558.5 979.2l17.4 -1.0 M224.5 979.8l7.4 -0.4 M439.1 15.8l16.2 -0.3 M643.3 978.0l7.9 -0.7 M1050.0 977.3l2.7 -0.5 M571.1 21.5l3.5 0.3 M290.3 29.2l15.7 -0.9 M710.5 8.6l2.1 0.3 M149.1 975.3l11.4 -0.3 M753.9 982.8l7.1 -0.2 M459.8 985.5l16.0 -0.8 M1220.6 31.2l21.9 0.7 M1534.8 15.5l15.9 0.3 M92.8 971.1l4.8 0.9 M1198.1 16.1l18.3 -0.7 M695.6 15.7l10.8 -0.9" fill="none" stroke="#100c09" stroke-opacity="0.7" stroke-width=".65"/>
    <g fill="#0e0c0b" stroke="#735035" stroke-width="1"><rect x="674" y="11" width="45" height="15" rx="2"/><rect x="840" y="972" width="184" height="18" rx="2"/></g>
    <g font-family="monospace" font-size="9" letter-spacing="1.3" fill="#c8b696" opacity=".72"><text x="441" y="24">MR / DISPLAY ASSEMBLY</text><text x="679" y="22" font-size="7" letter-spacing=".8">R-013</text><text x="852" y="984" font-size="8">FIELD SERVICE / 03</text><text x="1178" y="23" font-size="8">CAUTION // HV</text></g>
    <g><rect x="1042" y="975" width="34" height="11" rx="2" fill="#120e09" stroke="#886449"/><path d="M1047 978h7v4h-7z" fill="#e0863f"/><path d="M1059 978h4v4h-4z M1067 978h4v4h-4z" fill="#59432b"/><path d="M1048 978h5" stroke="#f4d29b"/></g>
    <g opacity=".8"><use href="#fastener" x="136" y="20"/><use href="#fastener" x="1462" y="20"/><use href="#fastener" x="229" y="980"/><use href="#fastener" x="1440" y="980"/><use href="#fastener" x="20" y="372"/><use href="#fastener" x="20" y="625"/><use href="#fastener" x="1580" y="380"/><use href="#fastener" x="1580" y="618"/></g>
    <path d="M0 0h1600v1000H0z" fill="transparent" filter="url(#grain)" opacity=".32"/>
  </g>
</svg>
