<svg xmlns="http://www.w3.org/2000/svg" width="10" height="1024" viewBox="0 0 10 1024"><title>Irregular right peripheral texture visibility mask</title><defs><linearGradient id="inward" gradientUnits="userSpaceOnUse" x1="10" y1="0" x2="0" y2="0"><stop offset="0" stop-color="white"/><stop offset=".4" stop-color="white"/><stop offset="1" stop-color="white" stop-opacity="0"/></linearGradient><mask id="cutouts" maskUnits="userSpaceOnUse" x="0" y="0" width="10" height="1024" style="mask-type:luminance"><rect width="10" height="1024" fill="white"/><g fill="black"><path d="M10 37L6.36 37L6.36 35L3 35L3 66L8.11 66L8.11 69L10 69Z"/><path d="M10 104L6.88 104L6.88 102L4 102L4 149L8.38 149L8.38 152L10 152Z"/><path d="M10 248L0 248L0 267L10 267Z"/><path d="M10 335L5.84 335L5.84 333L2 333L2 378L7.84 378L7.84 381L10 381Z"/><path d="M9 486L6.4 486L6.4 484L4 484L4 514L7.65 514L7.65 517L9 517Z"/><path d="M10 551L7.92 551L7.92 549L6 549L6 568L8.92 568L8.92 571L10 571Z"/><path d="M10 641L0 641L0 677L10 677Z"/><path d="M7 731L3.36 731L3.36 729L0 729L0 778L5.11 778L5.11 781L7 781Z"/><path d="M10 818L7.92 818L7.92 816L6 816L6 861L8.92 861L8.92 864L10 864Z"/><path d="M10 935L6.88 935L6.88 933L4 933L4 982L8.38 982L8.38 985L10 985Z"/></g></mask></defs><rect width="10" height="1024" fill="url(#inward)" mask="url(#cutouts)"/></svg>